<svg width="32" height="32" viewBox="0 0 32 32" fill="none" xmlns="http://www.w3.org/2000/svg">
<path fill-rule="evenodd" clip-rule="evenodd" d="M18.6339 6.52131C18.5012 6.65602 18.0347 7.34389 18.0347 8.19607C18.0347 8.40009 18.0384 13.2853 18.0347 13.4605C18.0275 13.8322 17.7945 14.3617 17.6025 14.5483C17.4673 14.6802 16.6362 15.4169 16.5624 15.4942L17.0338 15.5015C17.1871 15.3585 18.788 13.9752 18.9555 13.7891C19.1734 13.5477 19.6926 12.9361 19.6926 11.9757L19.6953 6.91741C19.6953 6.15842 20.0582 5.7374 20.2449 5.53415C20.4369 5.32546 21.0677 4.81254 21.1795 4.69651L20.6851 4.68223C20.5655 4.79878 18.7984 6.35336 18.6339 6.52131ZM14.6702 25.664L16.6306 27.3333H17.9434C19.278 27.3333 20.4981 26.7765 21.3031 25.9921C22.1086 25.2066 22.4053 24.152 22.4053 23.1654V20.4289C22.4053 19.5093 21.8122 18.9743 21.6479 18.8139C21.5579 18.7267 20.987 18.2018 20.987 18.2018V20.3012C20.987 20.3012 21.6163 20.9346 21.7406 21.0631C22.3222 21.6653 22.3158 22.7617 20.4747 24.5112C20.1522 24.8173 19.2322 25.664 17.9663 25.664H14.6702Z" fill="#C23C40"/>
<path fill-rule="evenodd" clip-rule="evenodd" d="M20.123 14.4333C19.9047 14.6586 19.6951 15.2097 19.6951 15.6954V16.7316H20.7733C21.1919 16.7316 21.7452 16.3596 21.865 16.1629C21.8722 16.1483 21.865 15.1352 21.865 15.1352C21.865 15.1352 22.1417 15.5215 22.4408 15.7255C22.5531 15.5871 23.5344 14.4271 24.3561 14.4206C25.728 14.4097 25.4181 16.0972 24.8576 16.6371C24.676 16.8108 23.8656 17.5355 23.6151 17.7678C22.9669 18.3692 21.8576 18.0814 21.8576 16.5273C21.8576 16.5273 20.667 17.6292 20.4886 17.7751C20.3091 17.921 19.6951 18.5551 19.6951 18.5551V21.2853C19.6951 22.5946 19.2531 23.0338 18.8869 23.4275C18.7444 23.5804 17.232 24.9255 17.0296 25.0714L16.5356 25.0823C16.5356 25.0823 17.4207 24.2979 17.5981 24.1182C17.7999 23.914 18.0351 23.4992 18.0351 22.8087C18.0351 22.6338 18.0127 18.5185 18.0127 18.5185H11.1324C8.73931 18.5185 8.22778 15.9295 8.21287 15.237C8.20914 15.033 8.21287 12.9652 8.21287 12.6444C8.21287 12.2189 7.93353 11.5009 7.48751 11.2795H8.16254C8.24029 11.3115 8.66449 11.4781 8.66449 13.0654C8.66449 13.0654 8.63573 14.9125 8.63573 15.0109C8.63573 15.8156 9.29212 16.7389 10.2406 16.7389L18.0281 16.7316C18.0353 16.5273 18.2444 15.753 18.6185 15.3437C18.8313 15.1129 20.5011 13.6232 20.6921 13.4799L21.1866 13.4745C21.1112 13.5414 20.3036 14.2477 20.123 14.4333ZM22.6799 15.9882C22.6799 15.9882 23.1307 16.5714 23.3456 16.7391C24.1844 17.3951 24.5825 16.6906 24.0196 15.937C23.7969 15.6401 22.9342 15.7257 22.6799 15.9882Z" fill="#C23C40"/>
<path fill-rule="evenodd" clip-rule="evenodd" d="M14.3296 20.8788C14.3296 21.2453 13.1284 22.2182 13.0581 22.2867C12.9713 21.8919 12.6683 21.4558 11.773 20.5826L13.0874 19.3014C13.968 20.1611 14.3296 20.3441 14.3296 20.8788ZM16.609 6.19216C16.8727 6.44914 17.4401 7.14635 17.0995 7.47887C16.7989 7.77218 16.3324 8.23734 16.3324 8.23734C16.3089 8.06965 15.8722 7.66602 15.8722 7.66602C15.8722 7.66602 15.876 8.9034 15.8722 9.05655C15.8573 9.61515 15.6416 9.77452 15.6416 9.77452C15.6416 9.77452 16.7006 10.7988 16.7006 12.1146C16.7006 12.7526 16.7033 13.3395 16.7033 13.4662C16.7033 13.7359 16.6335 13.9446 16.4408 14.1514C16.3457 14.2542 15.3639 15.2157 15.2145 15.3468C14.9301 15.5965 14.6311 15.6383 14.4069 15.6383H10.7564C10.1815 15.6383 9.58976 15.2009 9.58976 14.7635C9.58976 14.6542 9.59722 13.4438 9.59722 13.4438C9.78442 13.6554 9.97481 13.9025 10.435 13.896C10.7942 13.8906 11.1718 13.6154 11.2727 13.517C11.3773 13.414 14.0341 10.7066 14.0341 10.7066C14.0341 10.7066 12.7897 9.58218 11.9701 9.04798C11.5701 8.78659 11.0389 9.11651 10.9587 9.45992C10.7074 10.5369 10.9587 12.1525 10.9587 12.1525L9.95085 11.1723C9.54529 10.776 9.55994 9.87939 10.0435 9.40801C10.1202 9.33299 10.8567 8.52131 11.7925 8.52131H13.2499C14.2277 8.52131 15.2971 9.47082 15.2971 9.47082C15.2971 9.47082 15.4542 9.30314 15.4542 9.14091C15.4542 8.65239 15.4355 7.3348 15.4355 7.3348C14.6998 6.61786 14.5997 5.87782 14.9522 5.53415C15.6105 4.89274 15.8496 4.66666 15.8496 4.66666C15.8496 4.66666 15.8416 5.44485 16.609 6.19216ZM12.0292 13.3418C11.6695 13.7091 11.6069 13.801 11.2703 13.9978H15.3815C16.4956 13.9978 16.2741 13.3234 16.0743 12.9836C15.6645 12.2864 14.3709 10.9909 14.3709 10.9909C14.3709 10.9909 12.104 13.2642 12.0292 13.3418Z" fill="#C23C40"/>
<path fill-rule="evenodd" clip-rule="evenodd" d="M7.34142 16.9896H6.66666C6.66666 16.9896 7.39175 17.3779 7.39175 18.3793V21.5778C7.39175 23.6593 9.15296 25.5838 11.2928 25.5838H13.0801C14.1533 25.5838 14.5298 25.3304 15.1785 24.7692C15.4163 24.5631 15.7254 24.2249 15.8386 24.1021C16.2127 23.6941 16.6105 23.3642 16.6105 22.2924V21.2455C16.6105 20.3407 16.0732 19.964 15.8133 19.711C15.6469 19.5487 15.1896 19.1228 15.1896 19.1228V21.2671C15.1896 21.2671 15.6402 21.7348 15.8386 21.8869C16.7666 22.6013 16.0279 23.8415 15.1673 23.8415C14.9953 23.8415 11.4814 23.8426 11.242 23.8485C9.79657 23.8836 7.84284 22.6267 7.84284 20.5136V18.7757C7.8431 16.9896 7.34142 16.9896 7.34142 16.9896Z" fill="#C23C40"/>
</svg>
