<svg width="32" height="36" viewBox="0 0 32 36" fill="none" xmlns="http://www.w3.org/2000/svg">
<ellipse opacity="0.5" cx="16" cy="26" rx="4" ry="2" fill="#9BA6B2"/>
<path fill-rule="evenodd" clip-rule="evenodd" d="M16.0038 8C19.7135 8.01807 22.75 11.1451 22.75 15C22.75 17.1838 21.805 19.3662 20.5846 20.8939L20.4998 21L16.5532 25.7051C16.5339 25.7295 16.5137 25.7527 16.4925 25.7744C16.4741 25.7932 16.4553 25.811 16.4355 25.8278C16.3913 25.8654 16.3442 25.8975 16.2943 25.9233C16.2797 25.9312 16.2646 25.9385 16.2491 25.9451L16.218 25.9575L16.185 25.9691C16.1205 25.9896 16.0546 26 15.9882 26C15.8832 26 15.7792 25.974 15.6822 25.9233C15.5852 25.8727 15.4971 25.7986 15.4232 25.7051L11.5002 21L11.4008 20.8755C10.1823 19.3513 9.25 17.1844 9.25 15C9.25 11.134 12.2719 8 16.0038 8ZM16 17C17.5533 17 18.8125 15.7408 18.8125 14.1875C18.8125 12.6342 17.5533 11.375 16 11.375C14.4467 11.375 13.1875 12.6342 13.1875 14.1875C13.1875 15.7408 14.4467 17 16 17Z" fill="#9BA6B2"/>
</svg>
