<svg width="16" height="16" viewBox="0 0 16 16" fill="none" xmlns="http://www.w3.org/2000/svg">
<path fill-rule="evenodd" clip-rule="evenodd" d="M6.98925 10.1031L6.98925 13.948C6.98455 14.0875 7.00776 14.2265 7.05745 14.3564C7.10715 14.4864 7.18228 14.6046 7.27823 14.7037C7.37254 14.801 7.4853 14.8774 7.60955 14.9282C7.7338 14.9791 7.86691 15.0034 8.00069 14.9996C8.13446 15.0034 8.26757 14.9791 8.39182 14.9282C8.51607 14.8774 8.62883 14.801 8.72314 14.7037C8.91807 14.5013 9.03254 14.232 9.0443 13.948L9.04362 10.1031L14.5 6.58638V5.20591L9.04362 6.94815L9.04362 3.10331L10.392 2.05165V1L8.01644 1.68988L5.60872 1V2.05165L6.98925 3.10331L6.98925 6.94815L1.5 5.20661V6.58638L6.98925 10.1031Z" fill="#9BA6B2"/>
</svg>
